<?xml version="1.0" standalone="no"?>
<!DOCTYPE svg PUBLIC "-//W3C//DTD SVG 20010904//EN"
 "http://www.w3.org/TR/2001/REC-SVG-20010904/DTD/svg10.dtd">
<svg version="1.0" xmlns="http://www.w3.org/2000/svg"
 width="491.000000pt" height="426.000000pt" viewBox="0 0 491.000000 426.000000"
 preserveAspectRatio="xMidYMid meet">

<g transform="translate(0.000000,426.000000) scale(0.100000,-0.100000)"
fill="#000000" stroke="none">
<path d="M2334 3814 c-19 -19 -34 -39 -34 -43 0 -4 -17 -13 -37 -19 -98 -29
-199 -128 -229 -225 -9 -29 -18 -99 -21 -155 -6 -101 -6 -104 -32 -113 -18 -6
-41 -35 -74 -93 -26 -46 -56 -90 -65 -99 -16 -13 -172 -87 -185 -87 -10 0
-141 -83 -202 -129 -448 -334 -662 -911 -540 -1454 71 -316 238 -583 505 -809
122 -102 349 -218 507 -258 45 -11 93 -24 106 -29 13 -5 77 -15 142 -21 129
-14 321 -1 400 25 22 7 78 26 125 40 263 84 518 267 689 495 73 97 181 299
181 338 0 19 -6 22 -39 22 -22 0 -44 6 -51 15 -29 35 -84 59 -140 60 -50 1
-69 9 -158 60 -138 80 -382 292 -382 333 0 23 56 140 108 225 23 37 42 71 42
76 0 5 20 31 44 58 30 33 58 53 86 62 23 7 59 28 80 47 39 35 40 36 71 20 58
-29 142 -16 179 28 7 9 34 28 61 43 32 17 49 33 49 45 0 25 -31 84 -85 161
l-45 65 6 69 c12 132 -42 268 -149 371 -84 80 -163 117 -286 136 l-94 14 -63
68 c-35 38 -66 79 -70 91 -4 15 6 45 33 95 87 166 257 271 308 191 44 -71 115
-85 166 -34 33 33 36 60 13 101 -17 28 -62 60 -86 60 -7 0 -30 -11 -50 -25
-24 -16 -51 -25 -76 -25 -123 0 -224 -75 -292 -218 -23 -48 -45 -93 -49 -101
-4 -9 -23 -15 -46 -15 -37 -1 -41 -5 -88 -74 -50 -73 -50 -74 -86 -66 -20 4
-82 8 -137 9 l-101 2 -94 54 c-52 29 -97 58 -102 64 -12 16 3 155 24 215 28
82 80 150 142 188 64 39 85 40 134 6 30 -21 46 -25 78 -21 121 16 106 197 -16
197 -35 0 -47 -6 -75 -36z m130 -16 c24 -34 20 -73 -10 -97 -35 -27 -59 -26
-89 4 -48 47 -22 115 45 115 29 0 43 -6 54 -22z m-277 -124 c-15 -8 -48 -42
-72 -76 -25 -33 -45 -56 -45 -51 0 33 105 144 135 143 6 -1 -3 -8 -18 -16z
m1042 -89 c12 -25 12 -32 0 -54 -21 -37 -84 -37 -111 0 -26 34 -16 67 25 84
39 16 68 6 86 -30z m-229 -14 c-72 -15 -135 -58 -196 -136 -10 -14 -10 -9 3
14 35 65 136 131 198 129 29 0 29 0 -5 -7z m-237 -410 l91 -89 -35 -15 c-39
-16 -84 -59 -106 -100 l-14 -28 138 -147 c76 -81 158 -173 182 -205 25 -32 55
-66 68 -77 29 -23 29 -48 0 -81 -26 -30 -97 -86 -149 -118 -39 -23 -49 -41
-24 -41 7 0 39 14 71 31 31 16 55 27 52 22 -10 -17 117 -18 177 -2 29 8 36 13
25 20 -8 5 -11 9 -7 9 3 0 14 3 24 7 12 4 15 3 10 -5 -5 -8 -2 -10 8 -6 9 3
14 10 11 14 -3 4 11 20 29 34 19 14 38 35 41 46 3 11 10 20 15 20 5 0 32 -35
59 -77 l50 -78 -112 -6 c-133 -8 -201 -20 -364 -65 -254 -71 -491 -191 -763
-389 -180 -130 -379 -312 -366 -334 20 -32 243 -168 394 -241 265 -128 527
-190 798 -190 162 0 263 15 437 66 15 5 10 -9 -22 -73 -79 -156 -205 -314
-330 -414 -70 -57 -181 -123 -166 -99 5 7 -2 9 -22 4 -36 -9 -42 -14 -15 -14
43 0 21 -19 -79 -70 -93 -47 -243 -95 -374 -121 -92 -18 -352 -12 -456 11
-110 24 -240 60 -254 71 -5 4 -50 25 -100 46 -121 52 -239 137 -361 258 -368
367 -497 907 -333 1400 116 347 338 617 656 793 103 58 168 80 159 55 -36 -93
-3 -79 50 22 23 43 49 82 57 86 7 5 31 38 52 74 21 36 45 65 53 65 16 0 178
-90 227 -126 36 -26 159 -89 195 -99 l25 -8 -19 22 c-11 12 -42 34 -68 48 -27
15 -45 30 -41 34 5 5 41 6 80 2 70 -6 72 -7 67 -29 -6 -23 -5 -23 24 -9 16 9
35 29 42 45 22 52 29 42 9 -11 -11 -28 -17 -54 -14 -57 6 -7 1 -15 60 106 27
56 53 102 59 102 5 0 50 -40 99 -89z m309 -132 c69 -27 127 -68 183 -131 140
-156 160 -378 43 -484 -31 -28 -81 -44 -139 -44 -55 0 -67 10 -39 35 11 10 20
31 20 47 0 27 2 28 48 28 55 1 81 13 114 55 33 43 33 160 -1 225 -33 64 -80
120 -99 120 -14 -1 -14 -3 3 -18 25 -20 44 -53 84 -144 23 -52 28 -74 22 -100
-12 -54 -30 -79 -68 -94 -31 -13 -41 -13 -89 1 -61 18 -147 91 -124 105 9 5 4
12 -16 21 -22 11 -32 27 -47 76 -22 74 -12 130 31 170 24 22 33 24 77 19 28
-3 60 -8 73 -12 38 -11 24 13 -18 30 -65 26 -114 21 -154 -15 -20 -17 -40 -47
-45 -66 -11 -38 -4 -120 10 -129 5 -3 9 -10 9 -16 0 -15 -41 24 -142 135 -79
86 -80 88 -64 111 62 95 198 126 328 75z m128 -704 c8 -2 -22 -3 -67 -2 -45 0
-80 4 -78 7 4 6 115 2 145 -5z m205 -97 c-12 -38 -49 -69 -91 -75 -33 -4 -45
-1 -72 22 -18 15 -32 32 -32 39 0 13 88 32 163 35 35 1 38 -1 32 -21z m-245
-41 c0 -69 -94 -101 -173 -60 -16 8 -27 19 -25 25 4 11 144 55 181 57 11 1 17
-6 17 -22z m-275 -79 c-17 -55 -71 -98 -125 -98 -22 0 -85 29 -78 36 9 8 183
83 196 83 9 1 11 -6 7 -21z m-310 -677 c52 -29 113 -90 136 -133 7 -14 -10 -2
-43 29 -31 29 -84 70 -118 92 -73 47 -52 56 25 12z m838 -182 c30 -13 55 -55
41 -68 -15 -15 -143 -51 -179 -51 -33 0 -33 1 -24 33 5 17 24 47 44 65 37 34
74 41 118 21z m-328 -49 c34 -17 65 -52 65 -75 0 -3 -52 -5 -115 -5 -130 0
-141 8 -85 60 27 25 44 33 84 39 5 0 28 -8 51 -19z"/>
<path d="M2092 3014 c-142 -38 -238 -116 -300 -244 -33 -67 -37 -85 -40 -172
-3 -80 0 -107 17 -153 30 -80 48 -113 97 -176 24 -30 44 -66 44 -79 0 -14 16
-41 38 -64 20 -22 28 -33 16 -23 -11 9 -26 17 -33 17 -7 0 -9 5 -5 12 5 7 3 8
-5 4 -9 -6 -8 -13 5 -27 26 -29 101 -70 117 -63 8 3 38 -4 68 -15 114 -44 291
-14 401 66 82 60 182 207 204 302 40 167 -17 346 -151 476 -78 75 -139 109
-246 135 -98 23 -153 24 -227 4z m233 -39 c153 -40 280 -154 331 -297 17 -49
10 -49 -15 0 -30 60 -129 154 -196 187 -49 24 -73 30 -127 30 -58 0 -72 -4
-110 -30 -62 -43 -83 -92 -83 -190 0 -69 4 -89 32 -147 63 -133 180 -218 301
-218 101 0 161 40 203 135 25 56 37 46 20 -18 -30 -122 -102 -212 -211 -265
-169 -83 -395 -37 -536 108 -70 72 -118 160 -134 247 -37 196 75 389 262 454
66 23 183 24 263 4z m111 -134 c48 -22 116 -79 108 -92 -3 -5 1 -9 8 -9 13 0
45 -44 81 -109 28 -51 21 -164 -13 -209 -51 -69 -168 -93 -259 -52 -93 42
-158 122 -192 234 -23 75 -20 115 11 176 28 54 77 78 165 79 29 0 67 -7 91
-18z m-468 -670 c126 -88 329 -123 459 -78 24 8 40 11 38 7 -13 -22 -138 -50
-220 -50 -73 0 -96 4 -161 32 -41 17 -94 48 -117 69 -44 40 -43 52 1 20z m67
-119 c-3 -3 -11 0 -18 7 -9 10 -8 11 6 5 10 -3 15 -9 12 -12z"/>
<path d="M2353 2770 c-45 -18 -83 -117 -53 -135 6 -4 10 -21 8 -40 -2 -38 19
-74 64 -108 70 -52 138 -56 194 -12 27 21 29 28 29 87 0 54 -4 70 -30 108 -54
80 -151 126 -212 100z m33 -91 c24 -26 9 -53 -33 -57 -40 -4 -60 20 -45 53 14
31 52 33 78 4z"/>
<path d="M1855 2979 c-4 -6 -5 -12 -2 -15 2 -3 7 2 10 11 7 17 1 20 -8 4z"/>
<path d="M1091 2173 c-72 -196 -97 -355 -88 -564 5 -127 29 -259 48 -259 4 0
5 -8 2 -19 -12 -47 70 -241 164 -386 80 -125 134 -187 150 -173 7 6 13 17 13
25 0 8 5 11 11 8 7 -5 3 -15 -11 -30 l-22 -24 36 -35 c19 -20 41 -36 48 -36 7
0 6 5 -4 13 -24 18 -33 57 -14 57 21 0 20 10 -1 26 -16 12 -16 13 -1 14 9 0
19 6 21 13 4 9 7 9 15 -1 5 -7 15 -11 23 -9 8 2 11 2 7 0 -19 -11 -5 -23 27
-23 34 0 47 -13 23 -23 -8 -3 -6 -6 5 -6 9 -1 17 3 17 7 0 14 42 11 58 -5 14
-14 14 -17 -4 -30 -18 -15 -18 -15 4 -8 14 4 29 1 38 -6 9 -7 30 -14 47 -15
17 -2 33 -8 35 -13 2 -6 10 -11 19 -11 10 0 12 -6 8 -19 -8 -25 9 -35 35 -21
16 8 20 8 20 -4 0 -12 6 -13 31 -6 18 5 36 7 40 4 15 -9 10 -24 -8 -24 -13 -1
-9 -6 11 -17 24 -12 33 -13 49 -4 10 7 22 10 25 7 3 -3 0 -6 -7 -6 -7 0 -10
-4 -6 -9 3 -6 18 -6 36 -1 30 9 31 9 15 -9 -16 -18 -16 -19 1 -24 10 -3 43 -4
73 -3 47 2 132 -11 90 -13 -18 -1 36 -31 56 -31 8 0 14 5 14 10 0 6 5 10 11
10 6 0 8 -9 4 -22 -6 -18 -5 -20 11 -12 11 4 38 8 61 9 24 0 43 5 43 10 0 6
-12 10 -27 10 -16 0 -31 3 -34 8 -3 4 -31 8 -62 10 -31 1 -57 5 -57 10 0 4 -7
7 -16 7 -8 0 -38 8 -67 17 -37 12 -52 13 -55 5 -2 -7 -8 -12 -13 -12 -4 0 -6
6 -3 13 3 9 -11 20 -38 32 -72 30 -161 74 -203 100 -22 13 -47 22 -57 19 -16
-5 -32 10 -33 31 -1 6 -7 9 -14 7 -7 -1 -10 1 -7 6 3 5 -16 23 -42 40 -26 17
-93 76 -148 130 -75 74 -105 97 -113 89 -8 -8 -11 -8 -11 0 0 6 6 14 13 17 10
5 10 7 0 12 -7 3 -13 10 -13 15 0 6 -13 27 -29 47 -16 20 -41 57 -55 82 -13
25 -30 44 -36 42 -6 -1 -9 2 -6 7 8 12 -49 133 -58 124 -3 -3 -6 5 -6 18 0 14
-7 34 -15 45 -14 19 -14 18 -15 -3 0 -13 4 -23 9 -23 14 0 20 -51 9 -83 -8
-21 -13 -25 -19 -15 -5 7 -9 23 -9 36 0 12 -4 23 -10 23 -5 1 -14 3 -20 4 -5
1 -16 3 -24 4 -18 1 -27 24 -33 86 -3 28 -10 54 -17 58 -8 6 -7 10 2 14 10 4
8 9 -7 20 -15 10 -21 24 -20 51 1 33 2 34 9 12 6 -17 8 -20 9 -7 1 10 7 17 14
16 34 -4 47 2 47 24 0 18 2 19 10 7 7 -11 10 -6 10 20 0 23 -3 30 -9 22 -7
-11 -9 -11 -14 2 -3 8 -1 16 5 18 8 3 9 16 2 44 -15 64 -10 309 9 399 9 43 15
81 13 82 -2 2 -13 -22 -25 -54z m-64 -375 c-3 -8 -6 -5 -6 6 -1 11 2 17 5 13
3 -3 4 -12 1 -19z m20 -50 c-3 -7 -5 -2 -5 12 0 14 2 19 5 13 2 -7 2 -19 0
-25z m-24 2 c3 -11 1 -20 -4 -20 -5 0 -9 9 -9 20 0 11 2 20 4 20 2 0 6 -9 9
-20z m23 -97 c-10 -10 -19 5 -10 18 6 11 8 11 12 0 2 -7 1 -15 -2 -18z m-10
-190 c-10 -10 -19 5 -10 18 6 11 8 11 12 0 2 -7 1 -15 -2 -18z m84 -175 c0 -4
-5 -8 -11 -8 -5 0 -8 4 -5 9 3 5 -1 11 -9 15 -8 3 -15 11 -15 17 0 7 8 5 20
-6 11 -10 20 -22 20 -27z m-32 -18 c-2 -7 -10 1 -17 16 -12 27 -11 28 4 12 10
-9 16 -21 13 -28z m37 -28 c-3 -3 -11 0 -18 7 -9 10 -8 11 6 5 10 -3 15 -9 12
-12z m92 -4 c-3 -8 -6 -5 -6 6 -1 11 2 17 5 13 3 -3 4 -12 1 -19z m2 -49 c-7
-4 -8 -13 -4 -20 7 -12 5 -12 -6 -1 -7 7 -14 26 -15 43 l-2 29 19 -22 c14 -15
16 -24 8 -29z m60 -13 c-3 -3 -11 5 -18 17 -13 21 -12 21 5 5 10 -10 16 -20
13 -22z m-82 -97 c-4 -22 -4 -21 -6 4 -1 19 -5 26 -13 21 -7 -5 -8 -3 -3 5 11
19 27 -3 22 -30z m79 23 c1 -7 0 -8 -3 -2 -2 5 -9 8 -14 4 -5 -3 -9 0 -9 6 0
15 23 7 26 -8z m43 -45 c17 11 19 10 15 -1 -3 -8 0 -24 6 -36 10 -19 10 -20
-9 -8 -12 7 -21 16 -21 21 0 4 -4 5 -10 2 -5 -3 -10 -4 -10 -1 0 2 -3 13 -6
23 -5 15 -4 15 5 3 8 -12 14 -13 30 -3z m-49 -18 c0 -11 -24 -39 -34 -39 -3 0
-6 7 -6 15 0 8 7 15 16 15 8 0 12 5 9 10 -3 6 -1 10 4 10 6 0 11 -5 11 -11z
m20 -69 c0 11 3 11 12 2 9 -9 8 -15 -8 -28 -18 -15 -18 -15 0 -10 17 6 17 4 5
-10 -12 -15 -15 -14 -26 12 -17 42 -17 63 2 38 10 -14 14 -15 15 -4z m160 -81
c0 -5 -11 2 -25 15 -14 13 -25 27 -25 31 0 5 11 -2 25 -15 14 -13 25 -27 25
-31z m-58 -16 c-22 -17 -32 -16 -32 2 0 9 6 12 15 9 10 -4 15 0 15 12 0 16 2
16 9 5 7 -10 4 -19 -7 -28z m-45 -10 c-4 -3 -1 -13 6 -22 11 -14 10 -14 -5 -2
-16 12 -16 31 -1 31 4 0 3 -3 0 -7z m53 -23 c-6 -11 -16 -20 -23 -19 -9 0 -9
2 0 5 7 3 9 12 6 20 -3 9 1 14 11 14 14 0 15 -4 6 -20z m129 -22 c-7 -13 -14
-18 -16 -11 -3 7 2 19 9 27 18 20 22 12 7 -16z m-195 6 c3 -8 10 -13 15 -9 14
8 25 -15 12 -26 -6 -5 -9 -6 -7 -3 3 3 -7 17 -22 30 -15 13 -22 24 -16 24 7 0
15 -7 18 -16z m301 -63 c-6 -5 -25 10 -25 20 0 5 6 4 14 -3 8 -7 12 -15 11
-17z m159 -86 c11 -8 17 -17 14 -20 -2 -3 -15 4 -28 15 -26 23 -15 27 14 5z
m-4 -45 c0 -5 -4 -10 -10 -10 -5 0 -10 5 -10 10 0 6 5 10 10 10 6 0 10 -4 10
-10z m440 -124 c0 -3 -4 -8 -10 -11 -5 -3 -10 -1 -10 4 0 6 5 11 10 11 6 0 10
-2 10 -4z"/>
<path d="M1105 1607 c-4 -10 -5 -21 -1 -24 10 -10 18 4 13 24 -4 17 -4 17 -12
0z"/>
<path d="M1131 1504 c0 -11 3 -14 6 -6 3 7 2 16 -1 19 -3 4 -6 -2 -5 -13z"/>
<path d="M1125 1429 c-4 -6 -5 -12 -2 -15 2 -3 7 2 10 11 7 17 1 20 -8 4z"/>
<path d="M1080 1416 c0 -2 7 -9 15 -16 9 -7 15 -8 15 -2 0 5 -7 12 -15 16 -8
3 -15 4 -15 2z"/>
<path d="M1120 1381 c0 -5 7 -12 16 -15 22 -9 24 -8 18 9 -7 16 -34 21 -34 6z"/>
<path d="M1462 748 c-12 -12 -17 -48 -6 -48 11 0 34 29 34 44 0 19 -11 21 -28
4z"/>
<path d="M1585 730 c3 -5 10 -10 16 -10 5 0 9 5 9 10 0 6 -7 10 -16 10 -8 0
-12 -4 -9 -10z"/>
<path d="M1715 720 c3 -5 11 -10 16 -10 6 0 7 5 4 10 -3 6 -11 10 -16 10 -6 0
-7 -4 -4 -10z"/>
<path d="M1510 672 c0 -5 7 -13 16 -16 10 -4 14 -1 12 6 -5 15 -28 23 -28 10z"/>
<path d="M1560 671 c0 -5 7 -11 15 -15 9 -3 15 0 15 9 0 8 -7 15 -15 15 -8 0
-15 -4 -15 -9z"/>
<path d="M1600 665 c0 -21 36 -55 58 -55 10 0 12 4 5 13 -6 6 -9 19 -8 28 2 9
-2 16 -9 16 -6 0 -19 4 -28 8 -13 5 -18 2 -18 -10z"/>
<path d="M1462 652 c14 -9 38 -30 53 -46 15 -16 30 -25 35 -20 14 16 22 54 11
54 -6 0 -10 -3 -10 -7 6 -38 -16 -44 -32 -9 -6 13 -22 29 -36 35 -37 17 -51
13 -21 -7z"/>
<path d="M1641 531 c-11 -7 -9 -11 9 -21 17 -9 25 -9 34 1 8 9 8 10 -1 5 -19
-10 -39 4 -22 15 8 5 10 9 4 9 -5 0 -16 -4 -24 -9z"/>
<path d="M2870 526 c0 -2 7 -7 16 -10 8 -3 12 -2 9 4 -6 10 -25 14 -25 6z"/>
<path d="M2748 503 c7 -3 16 -2 19 1 4 3 -2 6 -13 5 -11 0 -14 -3 -6 -6z"/>
<path d="M2677 494 c-3 -3 -41 -8 -84 -11 -43 -3 -80 -7 -82 -9 -2 -2 36 -4
86 -4 73 0 90 3 90 15 0 17 -1 18 -10 9z"/>
<path d="M2578 443 c7 -3 16 -2 19 1 4 3 -2 6 -13 5 -11 0 -14 -3 -6 -6z"/>
<path d="M3090 2853 c-23 -9 -60 -45 -60 -60 0 -11 5 -10 24 2 21 14 25 14 47
-4 20 -16 22 -23 13 -38 -15 -25 -42 -28 -65 -7 -24 21 -26 0 -4 -30 8 -11 15
-26 15 -34 0 -41 78 -102 132 -102 76 0 98 81 48 180 -29 56 -111 107 -150 93z"/>
</g>
</svg>
